<svg id="avatar" xmlns="http://www.w3.org/2000/svg" viewBox="0 0 1440 1024"><defs><style>.cls-1{fill:#ee927e;}.cls-2{fill:#e6d5b8;}.cls-3{fill:#e9686a;}.cls-4{fill:#f4b497;}.cls-5{fill:#f6c09c;}.cls-6{fill:#f2e6d0;}.cls-7{fill:#fff;}.cls-13,.cls-19,.cls-8{fill:none;stroke-linecap:round;stroke-linejoin:round;}.cls-8{stroke:#e6d5b8;}.cls-13,.cls-8{stroke-width:1.53px;}.cls-9{fill:#000d19;}.cls-10{fill:#002131;}.cls-11{fill:#1a0507;}.cls-12{fill:#2b3073;}.cls-13{stroke:#2f296b;}.cls-14{fill:#e6eef2;}.cls-15{fill:#3a408a;}.cls-16{fill:#4c519e;}.cls-17{fill:#b7c8d8;}.cls-18{fill:#8695b2;}.cls-19{stroke:#2b3073;}</style></defs><rect class="cls-1" x="769.58" y="517.13" width="33.6" height="122.91" rx="16.8" transform="translate(-189 620.88) rotate(-38.83)"/><path class="cls-2" d="M783.28,534.54l28.84,35.84L772.85,602,744,566.14a25.2,25.2,0,0,1,39.27-31.6Z"/><rect class="cls-3" x="777.3" y="585.61" width="33.6" height="5.15" transform="translate(-193.31 627.85) rotate(-38.83)"/><path class="cls-4" d="M831.16,613.64a16.88,16.88,0,0,1-15.42,16.76l-16.83,1.4-45.74,3.79a24.64,24.64,0,0,1,20.09-35.38l39.71-3.3a16.85,16.85,0,0,1,18.13,15.35C831.14,612.72,831.16,613.19,831.16,613.64Z"/><path class="cls-5" d="M798.91,631.8a24.66,24.66,0,1,1,.93-9.08A24.68,24.68,0,0,1,798.91,631.8Z"/><rect class="cls-1" x="620.73" y="517.13" width="33.6" height="122.91" rx="16.8" transform="translate(771.44 1429.05) rotate(-141.17)"/><path class="cls-2" d="M640.63,534.54l-28.84,35.84L651.06,602l28.84-35.84a25.2,25.2,0,0,0-39.27-31.6Z"/><rect class="cls-3" x="613.01" y="585.61" width="33.6" height="5.15" transform="translate(751.68 1441.28) rotate(-141.17)"/><path class="cls-6" d="M778.52,556.87v101.9a27.46,27.46,0,0,1-27.47,27.46H673a27.46,27.46,0,0,1-27.46-27.46V556.87a54.57,54.57,0,0,1,54.57-54.57h23.85A54.57,54.57,0,0,1,778.52,556.87Z"/><path class="cls-7" d="M742.31,464.94v51.95a12.77,12.77,0,0,1-5.37,10.41l-17.53,12.45a12.77,12.77,0,0,1-14.78,0L687.1,527.3a12.77,12.77,0,0,1-5.37-10.41V464.94Z"/><path class="cls-8" d="M747,523.22a14.73,14.73,0,0,1-6.2,12l-20.22,14.36a14.72,14.72,0,0,1-17.06,0l-20.22-14.36a14.73,14.73,0,0,1-6.2-12"/><path class="cls-4" d="M742.31,455v52a12.75,12.75,0,0,1-5.37,10.4l-17.53,12.45a12.77,12.77,0,0,1-14.78,0L687.1,517.4a12.75,12.75,0,0,1-5.37-10.4V455Z"/><path class="cls-1" d="M742.31,460.79v30.48l-8.06,5.45a39.74,39.74,0,0,1-44.47,0l-8-5.44V460.79Z"/><circle class="cls-5" cx="659.9" cy="433.15" r="15.45"/><circle class="cls-1" cx="659.9" cy="433.15" r="7.06"/><circle class="cls-5" cx="764.13" cy="433.15" r="15.45"/><circle class="cls-1" cx="764.13" cy="433.15" r="7.06"/><path class="cls-9" d="M689.87,336.17h44.29a41.62,41.62,0,0,1,41.62,41.62v37.42a20.48,20.48,0,0,1-20.48,20.48H668.73a20.48,20.48,0,0,1-20.48-20.48V377.8A41.62,41.62,0,0,1,689.87,336.17Z"/><path class="cls-9" d="M779.27,372.52h-95.5a17.05,17.05,0,0,1-15.62-24,58.15,58.15,0,0,1,111.12,24Z"/><path class="cls-9" d="M771.2,378.49H686.57a42.32,42.32,0,1,1,84.63,0Z"/><path class="cls-4" d="M764.14,385.08v68.75a33,33,0,0,1-14.52,27.32l-15.37,10.38a39.7,39.7,0,0,1-44.47,0l-15.37-10.38a33,33,0,0,1-14.51-27.32V385.08a22.94,22.94,0,0,1,22.94-22.94h58.35A23,23,0,0,1,764.14,385.08Z"/><path class="cls-5" d="M764.14,385.08v57.31a33,33,0,0,1-14.52,27.32l-15.37,10.38a39.74,39.74,0,0,1-44.47,0l-15.37-10.38a33,33,0,0,1-14.51-27.32V385.08a22.94,22.94,0,0,1,22.94-22.94h58.35A23,23,0,0,1,764.14,385.08Z"/><path class="cls-1" d="M748.55,434.61a6,6,0,0,1-5.92,5.92H727a6,6,0,0,1-5.92-5.92,6.26,6.26,0,0,1,.13-1.23,5.95,5.95,0,0,1,5.79-4.69h15.66a6,6,0,0,1,5.79,4.69A6.26,6.26,0,0,1,748.55,434.61Z"/><path class="cls-9" d="M748.55,431.16a6,6,0,0,1-5.92,5.92H727a6,6,0,0,1-5.92-5.92,6.26,6.26,0,0,1,.13-1.23,6,6,0,0,1,1.61-2.95,5.86,5.86,0,0,1,4.18-1.74h15.66a6,6,0,0,1,5.79,4.69A6.26,6.26,0,0,1,748.55,431.16Z"/><path class="cls-10" d="M748.42,429.93a6,6,0,0,1-1.62,2.94,5.84,5.84,0,0,1-4.17,1.74H727a4.42,4.42,0,0,1-4.18-7.63,5.86,5.86,0,0,1,4.18-1.74h15.66A6,6,0,0,1,748.42,429.93Z"/><rect class="cls-11" x="731.55" y="440.32" width="6.49" height="12.03" rx="3.25"/><path class="cls-1" d="M703,434.61a5.94,5.94,0,0,1-5.92,5.92H681.41a5.94,5.94,0,0,1-5.92-5.92,5.58,5.58,0,0,1,.13-1.23,5.95,5.95,0,0,1,5.79-4.69h15.65a6,6,0,0,1,5.79,4.69A6.26,6.26,0,0,1,703,434.61Z"/><path class="cls-9" d="M703,431.16a5.94,5.94,0,0,1-5.92,5.92H681.41a5.94,5.94,0,0,1-5.92-5.92,5.58,5.58,0,0,1,.13-1.23,5.95,5.95,0,0,1,5.79-4.69h15.65a6,6,0,0,1,5.79,4.69A6.26,6.26,0,0,1,703,431.16Z"/><path class="cls-10" d="M702.85,429.93a6,6,0,0,1-1.61,2.94,5.86,5.86,0,0,1-4.18,1.74H681.41a5.94,5.94,0,0,1-5.79-4.68,5.95,5.95,0,0,1,5.79-4.69h15.65A6,6,0,0,1,702.85,429.93Z"/><rect class="cls-11" x="685.99" y="440.32" width="6.49" height="12.03" rx="3.25"/><path class="cls-12" d="M778.52,635.33v23.44a27.46,27.46,0,0,1-27.47,27.46H673a27.46,27.46,0,0,1-27.46-27.46V635.33Z"/><path class="cls-13" d="M764.13,664.42a17.06,17.06,0,0,1-17.07-17.06"/><path class="cls-13" d="M662.86,664.42a17.07,17.07,0,0,0,17.07-17.06"/><path d="M673.57,353.28s.11-.36.35-1,.62-1.64,1.18-2.85l1-2,1.23-2.28c.47-.8,1-1.65,1.52-2.54l1.84-2.72,2.17-2.83c.82-.93,1.66-1.9,2.52-2.89l2.86-2.87,3.19-2.78,3.51-2.62c1.23-.82,2.51-1.61,3.79-2.41s2.69-1.41,4-2.13a19.67,19.67,0,0,1,2.09-1l2.12-.89,1.07-.43.27-.11.06,0,.1,0,.13,0,.54-.18,2.15-.71c.7-.25,1.48-.41,2.21-.62s1.48-.43,2.23-.55a45.76,45.76,0,0,1,8.83-1.06,44.17,44.17,0,0,1,8.29.69,53,53,0,0,1,7.16,1.9c1.09.35,2.11.77,3.08,1.13l2.72,1.14c1.69.75,3.16,1.42,4.35,2s2.12,1.05,2.76,1.36l1,.49L750,323c-1.23-.48-2.73-1-4.46-1.66s-3.7-1.25-5.87-1.86a59.77,59.77,0,0,0-7.06-1.52,46.28,46.28,0,0,0-8-.41,48.2,48.2,0,0,0-8.47,1.18c-.72.13-1.41.36-2.12.54s-1.4.36-2.12.61l-2.14.73-.54.18-.13.05h0l-.07,0-.26.11-1,.42-2.07.85a18.41,18.41,0,0,0-2,.9c-1.31.68-2.65,1.31-3.93,2l-3.71,2.27-3.46,2.47-3.18,2.62-2.89,2.69-2.57,2.71-2.28,2.67-2,2.56c-.59.84-1.15,1.64-1.68,2.38l-1.38,2.17-1.1,1.89c-.62,1.16-1.11,2.07-1.42,2.71S673.57,353.28,673.57,353.28Z"/><path d="M685.66,347.81s.14-.3.43-.84.72-1.34,1.36-2.3,1.43-2.12,2.41-3.39a49.48,49.48,0,0,1,3.55-4.09c.7-.7,1.44-1.42,2.22-2.15s1.63-1.45,2.54-2.15a48.41,48.41,0,0,1,5.92-4.06l1.64-.94c.55-.31,1.14-.57,1.71-.86l1.74-.85,1.82-.73c.63-.24,1.2-.48,1.87-.72l1.86-.6c1.29-.35,2.62-.72,3.92-.95a50.73,50.73,0,0,1,7.91-.85,60.67,60.67,0,0,1,7.67.21,70.75,70.75,0,0,1,7.08,1c1.12.21,2.2.41,3.24.67s2,.47,3,.74c1.92.49,3.64,1.06,5.16,1.55s2.83,1,3.91,1.4c2.13.85,3.34,1.37,3.34,1.37s-1.27-.35-3.46-1c-1.11-.3-2.45-.67-4-1.05s-3.3-.77-5.22-1.15c-.95-.21-2-.38-3-.55s-2.11-.36-3.22-.5c-2.21-.33-4.55-.53-7-.7a71.27,71.27,0,0,0-7.46,0,47.86,47.86,0,0,0-7.61.89c-1.27.21-2.47.53-3.71.85l-1.86.58c-.55.2-1.17.45-1.75.67l-1.77.68-1.7.78c-.56.26-1.13.5-1.68.78l-1.6.87a54.9,54.9,0,0,0-5.89,3.71c-.91.64-1.73,1.35-2.57,2s-1.57,1.33-2.3,2c-1.42,1.32-2.7,2.57-3.77,3.74s-2,2.23-2.66,3.13C686.36,346.69,685.66,347.81,685.66,347.81Z"/><path d="M700.16,343.12s.19-.24.59-.66a22,22,0,0,1,1.81-1.71c.4-.36.86-.74,1.38-1.13s1.07-.82,1.69-1.25a37,37,0,0,1,4.32-2.61,43.25,43.25,0,0,1,5.49-2.43,50,50,0,0,1,6.43-1.87,55,55,0,0,1,7.09-1.07c1.21-.15,2.44-.15,3.68-.19l1.85-.05,1.85,0a59.89,59.89,0,0,1,7.38.75,49.57,49.57,0,0,1,7,1.66,53.46,53.46,0,0,1,6.27,2.34c1,.46,1.91.87,2.79,1.34s1.74.9,2.54,1.38,1.56.92,2.27,1.36,1.35.92,2,1.34c1.23.85,2.25,1.66,3.12,2.29,1.66,1.36,2.59,2.16,2.59,2.16s-1-.66-2.82-1.84c-.91-.55-2-1.25-3.29-2l-2.07-1.13-2.32-1.19c-1.64-.79-3.44-1.58-5.36-2.35a65.1,65.1,0,0,0-6.19-2,57.43,57.43,0,0,0-6.79-1.44,60.2,60.2,0,0,0-7.12-.67l-1.81,0-1.8,0c-1.2,0-2.39,0-3.57.16a60.59,60.59,0,0,0-6.89.86,61.26,61.26,0,0,0-6.31,1.56,53.48,53.48,0,0,0-5.46,2.05c-.82.37-1.62.72-2.35,1.11s-1.44.72-2.07,1.1-1.24.71-1.78,1.07-1,.67-1.46,1A26.35,26.35,0,0,0,700.16,343.12Z"/><path d="M703.83,351a16.33,16.33,0,0,1,1.79-1.94,23.82,23.82,0,0,1,2.32-2,30,30,0,0,1,3.3-2.19c.62-.38,1.31-.7,2-1.08s1.47-.64,2.23-1,1.6-.59,2.43-.87,1.71-.5,2.6-.71,1.81-.38,2.74-.52,1.88-.26,2.84-.33l2.92-.12c1,0,1.9,0,2.87.05,2,.1,3.88.24,5.77.52a47.53,47.53,0,0,1,5.51,1.07,45.11,45.11,0,0,1,5,1.57,46,46,0,0,1,4.29,1.86c1.3.65,2.45,1.3,3.46,1.91s1.85,1.16,2.54,1.65,1.22.88,1.58,1.14l.55.41-2.33-1.21c-.74-.39-1.66-.82-2.7-1.32s-2.25-1-3.56-1.53-2.77-1-4.32-1.5-3.2-.89-4.91-1.27-3.52-.64-5.36-.87-3.71-.35-5.57-.43c-.94-.06-1.91-.05-2.85-.08l-2.76.08c-.91.05-1.81.17-2.71.24s-1.77.27-2.63.4-1.69.4-2.51.57-1.6.46-2.38.68l-2.2.81c-.69.3-1.38.56-2,.87-1.27.61-2.42,1.21-3.4,1.81s-1.83,1.16-2.5,1.65A21.22,21.22,0,0,0,703.83,351Z"/><path d="M712,354.59a15.62,15.62,0,0,1,2.07-1.65,24.69,24.69,0,0,1,2.59-1.6,30,30,0,0,1,3.6-1.66c.68-.27,1.4-.49,2.15-.75s1.54-.42,2.35-.64,1.67-.33,2.54-.48,1.76-.23,2.67-.3,1.85-.1,2.79-.1,1.9,0,2.86.11l2.9.33c.94.17,1.87.3,2.83.49,1.91.4,3.79.83,5.62,1.4a47,47,0,0,1,5.28,1.9,47.46,47.46,0,0,1,8.66,4.82c1.18.84,2.22,1.66,3.12,2.41s1.65,1.44,2.26,2,1.06,1.06,1.38,1.37l.49.49-2.12-1.55c-.68-.5-1.51-1.07-2.47-1.72s-2.07-1.33-3.29-2.06-2.57-1.43-4-2.14-3-1.37-4.66-2-3.38-1.17-5.16-1.68-3.62-.92-5.44-1.28c-.92-.2-1.87-.35-2.8-.52l-2.74-.35c-.91-.08-1.82-.1-2.72-.17s-1.78,0-2.66,0-1.73.13-2.57.17-1.65.21-2.45.31l-2.3.46c-.73.2-1.45.34-2.12.55-1.35.41-2.58.83-3.64,1.27s-2,.86-2.72,1.25A19.71,19.71,0,0,0,712,354.59Z"/><path d="M723.69,357s.18-.12.53-.31a14.14,14.14,0,0,1,1.56-.74,19.49,19.49,0,0,1,2.54-.87,26.92,26.92,0,0,1,3.44-.71c.63-.1,1.3-.15,2-.23s1.41-.05,2.15-.08l2.28.06c.77,0,1.56.14,2.36.22a41.15,41.15,0,0,1,4.88.95c.83.18,1.63.48,2.45.72l1.24.39,1.19.43c.79.28,1.58.6,2.37.93s1.57.66,2.33,1a45.37,45.37,0,0,1,4.39,2.3,32.61,32.61,0,0,1,3.82,2.66,27.22,27.22,0,0,1,3,2.84,34,34,0,0,1,3.74,4.91c.4.62.69,1.13.89,1.47l.31.52-1.52-1.75c-.48-.56-1.08-1.22-1.78-2s-1.52-1.54-2.44-2.37a35.65,35.65,0,0,0-3.15-2.47,43.78,43.78,0,0,0-3.79-2.32q-2.06-1.09-4.31-2.07c-.74-.33-1.5-.66-2.27-.95s-1.53-.6-2.33-.89l-1.18-.44-1.17-.39c-.78-.24-1.55-.54-2.34-.72s-1.55-.43-2.33-.6-1.55-.34-2.31-.47l-2.25-.33-2.17-.2c-1.41-.07-2.76-.1-4,0s-2.38.17-3.38.32-1.87.32-2.58.51A16,16,0,0,0,723.69,357Z"/><path class="cls-4" d="M673.16,626.5a24.62,24.62,0,0,1-2.42,8.81L625,631.51l-16.83-1.4a16.86,16.86,0,0,1-15.42-16.75c0-.45,0-.92.06-1.38A16.85,16.85,0,0,1,611,596.63l39.57,3.28h.21A24.63,24.63,0,0,1,673.16,626.5Z"/><path class="cls-5" d="M673.16,626.5a24.63,24.63,0,1,1-22.64-26.59h.21A24.63,24.63,0,0,1,673.16,626.5Z"/><rect class="cls-14" x="540.01" y="715.13" width="344.02" height="11.68" rx="5.84"/><path class="cls-15" d="M704.93,681.92a26.49,26.49,0,0,1-26.46,25.88h-.65l-68.14-1.6-3.1-.85a26.51,26.51,0,0,1,7-52.07h.54a3.38,3.38,0,0,1,.45,0l64.52,1.52a26.49,26.49,0,0,1,25.86,27.11Z"/><path class="cls-15" d="M718.94,681.92A26.49,26.49,0,0,0,745.4,707.8h.65l68.14-1.6,3.1-.85a26.51,26.51,0,0,0-7-52.07h-.54a3.38,3.38,0,0,0-.45,0l-64.52,1.52a26.49,26.49,0,0,0-25.86,27.11Z"/><rect class="cls-16" x="704.78" y="706.23" width="64.14" height="15.71" transform="translate(-146.28 1236.54) rotate(-74.71)"/><path class="cls-16" d="M751.56,690l-3,11h0l-2.14,7.86L742.27,724h0l-3.58,13.1-.17.62-.94,3.42-1-.28-4.84-1.32-9.3-2.54L609.68,706.19l-3.1-.85a26.51,26.51,0,0,1,7-52.07h.54a3.38,3.38,0,0,1,.45,0,26.22,26.22,0,0,1,6,.92l84.06,23,31.78,8.69Z"/><path class="cls-10" d="M750.78,711.61h49.45a0,0,0,0,1,0,0v42.18a0,0,0,0,1,0,0H723.29a0,0,0,0,1,0,0V739.1A27.49,27.49,0,0,1,750.78,711.61Z" transform="translate(-145.89 1274.28) rotate(-74.71)"/><rect class="cls-17" x="732.82" y="735.95" width="89.35" height="8" transform="translate(-141.3 1294.79) rotate(-74.71)"/><path class="cls-18" d="M728.35,714.89h24.16a6.63,6.63,0,0,1,6.63,6.63v0a0,0,0,0,1,0,0H721.72a0,0,0,0,1,0,0v0A6.63,6.63,0,0,1,728.35,714.89Z" transform="translate(-147.61 1243.02) rotate(-74.71)"/><path class="cls-17" d="M726.2,722.74h24.16a6.63,6.63,0,0,1,6.63,6.63v0a0,0,0,0,1,0,0H719.57a0,0,0,0,1,0,0v0A6.63,6.63,0,0,1,726.2,722.74Z" transform="translate(-156.77 1246.73) rotate(-74.71)"/><path class="cls-14" d="M781.82,709,762.89,778.2A35.89,35.89,0,1,1,781.82,709Z"/><rect class="cls-16" x="655" y="706.23" width="64.14" height="15.71" transform="translate(179.45 1565.14) rotate(-105.29)"/><path class="cls-16" d="M731.12,613h53a0,0,0,0,1,0,0V748.85a26.5,26.5,0,0,1-26.5,26.5h0a26.5,26.5,0,0,1-26.5-26.5V613a0,0,0,0,1,0,0Z" transform="translate(287.79 1608.06) rotate(-105.29)"/><polyline class="cls-19" points="751.56 668.38 687.5 685.89 686.18 681.08 671.03 685.22 687.95 747.09"/><path class="cls-10" d="M623.68,711.61h76.94a0,0,0,0,1,0,0v42.18a0,0,0,0,1,0,0H651.17a27.49,27.49,0,0,1-27.49-27.49V711.61A0,0,0,0,1,623.68,711.61Z" transform="translate(130 1564.64) rotate(-105.29)"/><rect class="cls-17" x="601.74" y="735.95" width="89.35" height="8" transform="translate(103.13 1558.62) rotate(-105.29)"/><path class="cls-18" d="M664.78,714.89h37.41a0,0,0,0,1,0,0v0a6.63,6.63,0,0,1-6.63,6.63H671.4a6.63,6.63,0,0,1-6.63-6.63v0A0,0,0,0,1,664.78,714.89Z" transform="translate(170.95 1566.88) rotate(-105.29)"/><path class="cls-17" d="M666.92,722.74h37.41a0,0,0,0,1,0,0v0a6.63,6.63,0,0,1-6.63,6.63H673.55a6.63,6.63,0,0,1-6.63-6.63v0A0,0,0,0,1,666.92,722.74Z" transform="translate(166.09 1578.88) rotate(-105.29)"/><path class="cls-14" d="M642.09,709,661,778.2A35.89,35.89,0,1,0,642.09,709Z"/><path class="cls-17" d="M771.68,655H652.36A18.4,18.4,0,0,1,634,637.42l-3.62-85.37a18.39,18.39,0,0,1,18.37-19.18H775.3a18.4,18.4,0,0,1,18.38,19.18l-3.63,85.37A18.39,18.39,0,0,1,771.68,655Z"/><path class="cls-14" d="M771.68,663.06H652.36A18.4,18.4,0,0,1,634,645.44l-3.62-85.37a18.39,18.39,0,0,1,18.37-19.17H775.3a18.39,18.39,0,0,1,18.38,19.17l-3.63,85.37A18.4,18.4,0,0,1,771.68,663.06Z"/><circle class="cls-17" cx="711.27" cy="605.04" r="12.32"/><path class="cls-17" d="M718.25,587.46a9.85,9.85,0,0,1-7,2.9,9.9,9.9,0,0,1,9.88-9.88A9.88,9.88,0,0,1,718.25,587.46Z"/><path class="cls-10" d="M727.39,465.83a12.93,12.93,0,0,1-.46,1.23,16.1,16.1,0,0,1-5.13,6.68l-.41.3a16.11,16.11,0,0,1-18.74,0l-.41-.29a16.15,16.15,0,0,1-5.14-6.68,12.93,12.93,0,0,1-.46-1.23,3.8,3.8,0,0,1,2.61-4.78,3.49,3.49,0,0,1,1.08-.16h23.38a3.47,3.47,0,0,1,1.07.16A3.78,3.78,0,0,1,727.39,465.83Z"/><path class="cls-3" d="M721.39,474a16.15,16.15,0,0,1-18.74,0,10.71,10.71,0,0,1,18.74,0Z"/><path class="cls-7" d="M727.39,465.83h0a1.79,1.79,0,0,1-1.71,1.22H698.35a1.79,1.79,0,0,1-1.71-1.22h0a3.8,3.8,0,0,1,2.61-4.78,3.49,3.49,0,0,1,1.08-.16h23.38a3.47,3.47,0,0,1,1.07.16A3.78,3.78,0,0,1,727.39,465.83Z"/></svg>