<?xml version="1.0" encoding="utf-8"?>
<!-- Generator: Adobe Illustrator 24.2.0, SVG Export Plug-In . SVG Version: 6.00 Build 0)  -->
<svg version="1.1" id="avatar" xmlns="http://www.w3.org/2000/svg" xmlns:xlink="http://www.w3.org/1999/xlink" x="0px" y="0px"
	 viewBox="0 0 1083.4 655.5" style="enable-background:new 0 0 1083.4 655.5;" xml:space="preserve">
<style type="text/css">
	.st0{fill:#E6EEF2;}
	.st1{fill:#825C41;}
	.st2{fill:#4F1C18;}
	.st3{fill:#68392A;}
	.st4{fill:#360B0E;}
	.st5{fill:#F6C09C;}
	.st6{fill:#E6D5B8;}
	.st7{fill:#EE927E;}
	.st8{fill:#F2E6D0;}
	.st9{fill:#FFFFFF;}
	.st10{fill:none;stroke:#E6D5B8;stroke-width:1.68;stroke-linecap:round;stroke-linejoin:round;}
	.st11{fill:#F4B497;}
	.st12{fill:#000D19;}
	.st13{fill:#002131;}
	.st14{fill:#1A0507;}
	.st15{fill:none;stroke:#EE927E;stroke-width:3.12;stroke-linecap:round;stroke-linejoin:round;}
	.st16{fill:#4C519E;}
	.st17{fill:#3A408A;}
	.st18{fill:#B7C8D8;}
	.st19{fill:#8695B2;}
	.st20{fill:#2F296B;}
	.st21{fill:none;stroke:#2F296B;stroke-width:1.68;stroke-linecap:round;stroke-linejoin:round;}
</style>
<path class="st0" d="M17.4,626.5h1045.2c4.6,0,8.4,3.8,8.4,8.4l0,0c0,4.6-3.8,8.4-8.4,8.4H17.4c-4.6,0-8.4-3.8-8.4-8.4l0,0
	C9,630.3,12.8,626.5,17.4,626.5z"/>
<path class="st1" d="M117.9,231.8h599.2c29.5,0,53.3,23.9,53.3,53.3v0v164.9l0,0H64.6l0,0v-165C64.6,255.7,88.5,231.8,117.9,231.8z"
	/>
<path class="st2" d="M822,285.1v165H116.1v-165c0-29.5,23.9-53.3,53.3-53.3c0,0,0,0,0,0h599.2C798.1,231.8,822,255.7,822,285.1
	C822,285.1,822,285.1,822,285.1z"/>
<path class="st1" d="M793.6,364.9H946l0,0v261.6l0,0H733.8l0,0V424.8C733.8,391.7,760.5,364.9,793.6,364.9
	C793.6,364.9,793.6,364.9,793.6,364.9z"/>
<path class="st3" d="M946,364.9L946,364.9c33.1,0,59.9,26.8,59.9,59.9v201.7l0,0H886l0,0V424.8C886,391.7,912.8,364.9,946,364.9
	C945.9,364.9,945.9,364.9,946,364.9z"/>
<circle class="st2" cx="946" cy="427.9" r="37.3"/>
<path class="st3" d="M871.5,475.6v151H264.7V450.1H846C860.1,450.1,871.5,461.5,871.5,475.6z"/>
<rect x="336.7" y="512.2" class="st2" width="534.8" height="7"/>
<rect x="371.7" y="231.8" class="st4" width="7.5" height="218.3"/>
<rect x="636.4" y="231.8" class="st4" width="7.5" height="218.3"/>
<path class="st5" d="M570.1,377.8L570.1,377.8c-9.7,3.1-20.1-2.2-23.3-12l-30-93.6c-3.1-9.7,2.2-20.1,12-23.3l0,0
	c9.7-3.1,20.1,2.2,23.3,12l30,93.6C585.2,364.3,579.9,374.7,570.1,377.8z"/>
<path class="st5" d="M653.9,285.2L653.9,285.2c6.6,7.8,5.6,19.5-2.2,26.1l-75,63.5c-7.8,6.6-19.5,5.6-26.1-2.2l0,0
	c-6.6-7.8-5.6-19.5,2.2-26.1l75-63.5C635.6,276.4,647.3,277.4,653.9,285.2z"/>
<circle class="st5" cx="647.6" cy="301.8" r="27.1"/>
<path class="st6" d="M510.9,284l15.5,48.2l52.8-16.9l-15.5-48.2c-4.7-14.6-20.3-22.6-34.9-17.9S506.2,269.4,510.9,284L510.9,284z"/>
<rect x="535.1" y="323.5" transform="matrix(0.9523 -0.3052 0.3052 0.9523 -73.1845 184.5384)" class="st7" width="37" height="5.7"/>
<path class="st8" d="M551.7,276.5v112.1c0,16.7-13.5,30.2-30.2,30.2h-85.9c-16.7,0-30.2-13.5-30.2-30.2V276.5c0-33.1,26.9-60,60-60
	c0,0,0,0,0,0h26.2C524.8,216.5,551.6,243.4,551.7,276.5C551.7,276.5,551.7,276.5,551.7,276.5z"/>
<path class="st9" d="M516.5,175.2v57.2c0,4.6-2.2,8.8-5.9,11.5l-19.3,13.7c-4.9,3.5-11.4,3.5-16.3,0l-19.3-13.7
	c-3.7-2.6-5.9-6.9-5.9-11.5v-57.2H516.5z"/>
<path class="st10" d="M521.7,239.3c0,5.2-2.5,10.2-6.8,13.2l-22.3,15.8c-5.6,4-13.1,4-18.8,0l-22.3-15.8c-4.3-3-6.8-8-6.8-13.2"/>
<path class="st11" d="M516.5,164.3v57.2c0,4.6-2.2,8.8-5.9,11.5l-19.3,13.7c-4.9,3.5-11.4,3.5-16.3,0l-19.3-13.7
	c-3.7-2.6-5.9-6.9-5.9-11.5v-57.2H516.5z"/>
<circle class="st5" cx="542.3" cy="140.2" r="17"/>
<circle class="st7" cx="542.3" cy="140.2" r="7.8"/>
<path class="st12" d="M467.6,33.5h48.7c25.3,0,45.8,20.5,45.8,45.8v41.2c0,12.4-10.1,22.5-22.5,22.5h-95.3
	c-12.4,0-22.5-10.1-22.5-22.5V79.3C421.8,54,442.3,33.5,467.6,33.5C467.6,33.5,467.6,33.5,467.6,33.5z"/>
<path class="st12" d="M570.2,73.5H465.1c-10.4,0-18.8-8.4-18.8-18.7c0-2.6,0.5-5.3,1.6-7.7c14.6-32.2,52.5-46.4,84.7-31.8
	C555.5,25.6,570.2,48.4,570.2,73.5L570.2,73.5z"/>
<path class="st12" d="M561.4,80.1h-93.1c0.4-25.7,21.5-46.3,47.2-45.9C540.7,34.6,561,54.9,561.4,80.1z"/>
<path class="st7" d="M516.5,164.3v48.6c-14.1,6.6-32,6.5-44.8-2.1l-16.9-11.4c-1.8-1.2-3.5-2.5-5-4v-31L516.5,164.3z"/>
<path class="st11" d="M553.6,87.3v75.7c0,12.1-6,23.3-16,30.1l-14.8,10c-14.8,10-36.3,11.5-51.1,1.5L454.8,193
	c-10-6.7-16-18-16-30.1V87.3c0-13.9,11.3-25.2,25.3-25.2h64.2C542.3,62.1,553.5,73.4,553.6,87.3z"/>
<path class="st5" d="M553.6,87.3v63.1c0,12.1-6,23.3-16,30.1l-16.9,11.4c-14.8,10-34.1,10-48.9,0l-16.9-11.4c-10-6.7-16-18-16-30.1
	V87.3c0-13.9,11.3-25.2,25.3-25.2h64.2C542.3,62.1,553.5,73.4,553.6,87.3z"/>
<path class="st12" d="M461,61.2h-11c-13.6,0-24.7,11-24.7,24.7v49.9h10.7c13.8,0,24.9-11.1,24.9-24.9c0,0,0,0,0,0V86.4
	c0-13.9,11.3-25.2,25.2-25.2H461z"/>
<path class="st7" d="M550,129.5c0,3.6-2.9,6.5-6.5,6.5h-17.2c-3.6,0-6.5-2.9-6.5-6.5c0-0.5,0-0.9,0.1-1.4c0.7-3,3.3-5.1,6.4-5.2
	h17.2c3.1,0,5.7,2.2,6.4,5.2C550,128.6,550,129,550,129.5z"/>
<path class="st12" d="M550,125.7c0,3.6-2.9,6.5-6.5,6.5h-17.2c-3.6,0-6.5-2.9-6.5-6.5c0-0.5,0-0.9,0.1-1.4c0.3-1.2,0.9-2.4,1.8-3.2
	c1.2-1.2,2.9-1.9,4.6-1.9h17.2c3.1,0,5.7,2.2,6.4,5.2C550,124.8,550,125.2,550,125.7z"/>
<path class="st13" d="M549.9,124.3c-0.3,1.2-0.9,2.3-1.8,3.2c-1.2,1.2-2.9,1.9-4.6,1.9h-17.2c-2.5,0.9-5.3-0.5-6.2-3.1
	c-0.7-1.9,0-4.1,1.6-5.3c1.2-1.2,2.9-1.9,4.6-1.9h17.2C546.6,119.2,549.2,121.3,549.9,124.3z"/>
<path class="st14" d="M534.9,135.8L534.9,135.8c2,0,3.6,1.6,3.6,3.6v6.1c0,2-1.6,3.6-3.6,3.6l0,0c-2,0-3.6-1.6-3.6-3.6v-6.1
	C531.3,137.4,532.9,135.8,534.9,135.8z"/>
<path class="st7" d="M499.9,129.5c0,3.6-2.9,6.5-6.5,6.5h-17.2c-3.6,0-6.5-2.9-6.5-6.5c0-0.5,0-0.9,0.1-1.4c0.7-3,3.3-5.1,6.4-5.2
	h17.2c3.1,0,5.7,2.2,6.4,5.2C499.8,128.6,499.9,129,499.9,129.5z"/>
<path class="st12" d="M499.9,125.7c0,3.6-2.9,6.5-6.5,6.5h-17.2c-3.6,0-6.5-2.9-6.5-6.5c0-0.5,0-0.9,0.1-1.4c0.7-3,3.3-5.1,6.4-5.2
	h17.2c3.1,0,5.7,2.2,6.4,5.2C499.8,124.8,499.9,125.2,499.9,125.7z"/>
<path class="st13" d="M499.8,124.3c-0.3,1.2-0.9,2.3-1.8,3.2c-1.2,1.2-2.9,1.9-4.6,1.9h-17.2c-3.1,0-5.7-2.2-6.4-5.2
	c0.7-3,3.3-5.1,6.4-5.2h17.2C496.5,119.2,499.1,121.3,499.8,124.3z"/>
<path class="st14" d="M484.8,135.8L484.8,135.8c2,0,3.6,1.6,3.6,3.6v6.1c0,2-1.6,3.6-3.6,3.6l0,0c-2,0-3.6-1.6-3.6-3.6v-6.1
	C481.2,137.4,482.8,135.8,484.8,135.8z"/>
<path class="st15" d="M525.6,167.1c-8.7,8.7-22.9,8.7-31.6,0"/>
<path class="st16" d="M551.7,362.9v25.8c0,16.7-13.5,30.2-30.2,30.2h-85.9c-16.7,0-30.2-13.5-30.2-30.2v-25.8H551.7z"/>
<rect x="626.6" y="559.1" class="st17" width="74.7" height="18.3"/>
<path class="st17" d="M694.1,419.3L694.1,419.3c0,17-13.8,30.9-30.9,30.9H535.9c-17,0-30.8-13.8-30.8-30.8c0,0,0,0,0,0v-30.9l0,0
	h158.1C680.3,388.4,694.1,402.2,694.1,419.3z"/>
<path class="st17" d="M694.1,577.4h-61.7l0,0V419.3c0-17,13.8-30.9,30.9-30.9l0,0c17,0,30.9,13.8,30.9,30.9L694.1,577.4L694.1,577.4
	z"/>
<path class="st13" d="M747.6,626.5H632.4l0,0v-49.1l0,0h83.1c17.7,0,32,14.3,32,32V626.5L747.6,626.5z"/>
<rect x="628.5" y="617.2" class="st18" width="131.6" height="9.3"/>
<path class="st19" d="M704.7,577.4h-43.6l0,0l0,0c0-4.3,3.5-7.7,7.7-7.7c0,0,0,0,0,0h28.1C701.2,569.7,704.7,573.2,704.7,577.4
	C704.7,577.4,704.7,577.4,704.7,577.4L704.7,577.4L704.7,577.4z"/>
<path class="st18" d="M714.1,577.4h-43.6l0,0l0,0c0-4.3,3.5-7.7,7.7-7.7c0,0,0,0,0,0h28.1C710.7,569.7,714.1,573.2,714.1,577.4
	C714.1,577.4,714.1,577.4,714.1,577.4L714.1,577.4L714.1,577.4L714.1,577.4z"/>
<path class="st0" d="M672.4,617.2h83.6c0.4-23.1-18.1-42.1-41.1-42.4c-23.1-0.4-42.1,18.1-42.4,41.1
	C672.3,616.4,672.3,616.8,672.4,617.2z"/>
<circle class="st0" cx="649.7" cy="596.3" r="9.7"/>
<path class="st20" d="M648.5,591.5l-0.7,1.5c-0.2,0.4-0.6,0.7-1,0.8l-1.6,0.2c-0.8,0.1-1.3,0.8-1.2,1.6c0,0.3,0.2,0.6,0.4,0.8
	l1.2,1.1c0.3,0.3,0.5,0.8,0.4,1.2l-0.3,1.6c-0.1,0.8,0.4,1.5,1.1,1.6c0.3,0.1,0.6,0,0.9-0.1l1.4-0.8c0.4-0.2,0.9-0.2,1.3,0l1.4,0.8
	c0.7,0.4,1.5,0.1,1.9-0.6c0.1-0.3,0.2-0.6,0.1-0.9l-0.3-1.6c-0.1-0.5,0.1-0.9,0.4-1.2l1.2-1.1c0.5-0.5,0.6-1.4,0-2
	c-0.2-0.2-0.5-0.4-0.8-0.4l-1.6-0.2c-0.4-0.1-0.8-0.4-1-0.8l-0.7-1.5c-0.3-0.7-1.1-1-1.8-0.7C648.9,590.9,648.6,591.2,648.5,591.5z"
	/>
<path class="st21" d="M546.7,394.9c-10.4,0-18.8-8.4-18.8-18.8c0,0,0,0,0,0"/>
<path class="st21" d="M435.2,394.9c10.4,0,18.8-8.4,18.8-18.7c0,0,0,0,0-0.1"/>
<path d="M453.9,52.3c3.1-8.4,8-16,14.4-22.4c6.4-6.4,14-11.4,22.4-14.7c4.2-1.7,8.5-2.9,13-3.6c4.5-0.7,9-0.7,13.5-0.1
	c4.5,0.7,8.8,1.8,13,3.5c4.2,1.6,8.2,3.5,12.1,5.5c-8.2-3.3-16.6-6.6-25.3-7.5c-8.7-0.9-17.5,0.7-25.6,4l-3,1.2
	c-0.5,0.2-1,0.4-1.5,0.7l-1.5,0.7c-1,0.5-2,1-2.9,1.5l-2.8,1.7c-0.9,0.6-1.9,1.2-2.7,1.8c-0.9,0.6-1.8,1.2-2.7,1.9
	c-1.7,1.4-3.4,2.8-5,4.3c-3.2,3-6.1,6.3-8.7,9.9C458.1,44.5,455.8,48.3,453.9,52.3z"/>
<path d="M467.2,46.3c3.7-6.9,8.9-12.8,15.2-17.4c0.8-0.6,1.6-1.1,2.4-1.7s1.6-1.1,2.5-1.6s1.7-1,2.5-1.4l2.6-1.3
	c0.9-0.5,1.8-0.8,2.7-1.1s1.8-0.8,2.8-1s1.9-0.6,2.8-0.8l1.4-0.4l1.4-0.3c7.7-1.3,15.6-1.3,23.3,0c3.8,0.6,7.6,1.5,11.3,2.6
	c3.7,1.1,7.3,2.4,10.9,3.9c-7.3-2.3-14.8-4-22.4-5c-3.8-0.5-7.6-0.7-11.4-0.7c-3.8,0-7.6,0.4-11.3,1.1l-1.4,0.3l-1.4,0.3
	c-0.9,0.2-1.8,0.5-2.7,0.8c-0.9,0.2-1.8,0.6-2.7,1s-1.8,0.6-2.6,1.1c-3.5,1.5-6.8,3.4-9.9,5.5c-3.1,2.2-6.1,4.6-8.8,7.3
	C471.8,40.1,469.3,43.1,467.2,46.3z"/>
<path d="M483.2,41.1c4.9-5.3,11.5-8.9,18.3-11.2l2.6-0.8l2.7-0.6c0.9-0.2,1.8-0.4,2.7-0.5s1.8-0.3,2.7-0.4c3.6-0.4,7.3-0.6,10.9-0.5
	c3.6,0.1,7.3,0.6,10.8,1.3c3.6,0.8,7,1.9,10.4,3.2c3.3,1.4,6.6,3.1,9.6,5c3,1.9,5.9,4.1,8.7,6.4c-3-2-6-3.9-9.2-5.6
	c-3.1-1.7-6.4-3.1-9.7-4.4c-6.6-2.4-13.6-3.8-20.7-4.1c-3.5-0.1-7.1,0-10.6,0.4c-3.5,0.4-7,1-10.4,2c-3.4,1-6.7,2.3-9.9,3.8
	C488.9,36.8,485.9,38.8,483.2,41.1z"/>
<path d="M487.2,49.8c3.8-4.3,8.6-7.5,14-9.3c5.4-1.9,11.1-2.7,16.9-2.3c5.7,0.2,11.3,1.2,16.7,3c5.3,1.9,10.4,4.6,14.8,8
	c-4.8-2.7-10-4.9-15.3-6.5c-5.3-1.5-10.8-2.3-16.3-2.5c-0.7-0.1-1.4,0-2.1-0.1c-0.7,0-1.4,0-2.1,0l-2.1,0.1c-0.7,0-1.4,0.1-2,0.2
	c-1.4,0.1-2.7,0.4-4.1,0.6s-2.7,0.6-4,1c-2.7,0.8-5.3,1.9-7.7,3.2C491.6,46.4,489.3,47.9,487.2,49.8z"/>
<path d="M496.2,53.7c4.4-3.7,9.6-6.1,15.3-7.1c5.6-1,11.4-0.9,17,0.3c5.6,1.1,11,2.9,16.1,5.6c5,2.7,9.6,6.1,13.5,10.2
	c-4.4-3.5-9.1-6.4-14.2-8.8c-5-2.3-10.3-4-15.7-5c-0.7-0.2-1.4-0.2-2-0.4s-1.4-0.2-2-0.3l-2-0.2c-0.7-0.1-1.4-0.1-2-0.1
	c-1.4-0.1-2.7,0-4.1,0s-2.7,0.2-4.1,0.4c-2.7,0.4-5.4,1-8,1.9C501.2,51,498.6,52.2,496.2,53.7z"/>
<path d="M509,56.4c2.2-1.2,4.5-2.1,7-2.5c2.5-0.5,5-0.7,7.5-0.6c2.5,0.1,5,0.4,7.5,0.9c2.5,0.6,4.9,1.3,7.2,2.1
	c4.8,1.7,9.2,4,13.3,6.9c2,1.5,3.9,3.3,5.5,5.2c1.6,1.9,3,4,4.2,6.1c-1.6-1.9-3.2-3.8-5-5.5c-1.7-1.7-3.6-3.2-5.7-4.6
	c-2-1.3-4.2-2.5-6.4-3.5c-2.2-1-4.5-2-6.8-2.8c-4.5-1.8-9.3-2.9-14.1-3.4C518.6,54.3,513.7,54.9,509,56.4z"/>
<rect x="536.8" y="559.1" class="st16" width="74.7" height="18.3"/>
<path class="st16" d="M604.3,419.3L604.3,419.3c0,17-13.8,30.9-30.9,30.9H446c-17,0-30.8-13.8-30.8-30.8c0,0,0,0,0,0v-30.9l0,0
	h158.1C590.4,388.4,604.2,402.2,604.3,419.3z"/>
<path class="st16" d="M604.3,577.4h-61.7l0,0V419.3c0-17,13.8-30.9,30.9-30.9l0,0c17,0,30.9,13.8,30.9,30.9L604.3,577.4L604.3,577.4
	L604.3,577.4z"/>
<path class="st13" d="M657.8,626.5H542.6l0,0v-49.1l0,0h83.2c17.7,0,32,14.3,32,32L657.8,626.5L657.8,626.5z"/>
<rect x="538.7" y="617.2" class="st18" width="131.6" height="9.3"/>
<path class="st19" d="M614.8,577.4h-43.6l0,0l0,0c0-4.3,3.5-7.7,7.7-7.7c0,0,0,0,0,0h28.2C611.4,569.7,614.8,573.2,614.8,577.4
	C614.8,577.4,614.8,577.4,614.8,577.4L614.8,577.4L614.8,577.4L614.8,577.4z"/>
<path class="st18" d="M624.3,577.4h-43.6l0,0l0,0c0-4.3,3.5-7.7,7.7-7.7c0,0,0,0,0,0h28.1C620.8,569.7,624.3,573.2,624.3,577.4
	C624.3,577.4,624.3,577.4,624.3,577.4L624.3,577.4L624.3,577.4L624.3,577.4z"/>
<path class="st0" d="M582.5,617.2H666c0.4-23.1-18.1-42.1-41.1-42.4c-23.1-0.4-42.1,18.1-42.4,41.1
	C582.5,616.4,582.5,616.8,582.5,617.2L582.5,617.2z"/>
<circle class="st0" cx="559.9" cy="596.3" r="9.7"/>
<path class="st20" d="M558.7,591.5l-0.7,1.5c-0.2,0.4-0.6,0.7-1,0.8l-1.6,0.2c-0.8,0.1-1.3,0.8-1.2,1.6c0,0.3,0.2,0.6,0.4,0.8
	l1.2,1.1c0.3,0.3,0.5,0.8,0.4,1.2l-0.3,1.6c-0.1,0.8,0.4,1.5,1.1,1.6c0.3,0.1,0.6,0,0.9-0.1l1.4-0.8c0.4-0.2,0.9-0.2,1.3,0l1.4,0.8
	c0.7,0.4,1.5,0.1,1.9-0.6c0.1-0.3,0.2-0.6,0.1-0.9l-0.3-1.6c-0.1-0.5,0.1-0.9,0.4-1.2l1.2-1.1c0.5-0.5,0.6-1.4,0-2
	c-0.2-0.2-0.5-0.4-0.8-0.4l-1.6-0.2c-0.4-0.1-0.8-0.4-1-0.8l-0.7-1.5c-0.3-0.7-1.1-1-1.8-0.7C559.1,590.9,558.8,591.2,558.7,591.5z"
	/>
<circle class="st5" cx="438.9" cy="140.2" r="17"/>
<circle class="st7" cx="438.9" cy="140.2" r="7.8"/>
<path class="st18" d="M503.4,374h172.3l0,0v14.4l0,0H503.4c-4,0-7.2-3.2-7.2-7.2c0,0,0,0,0,0l0,0C496.2,377.2,499.5,374,503.4,374z"
	/>
<path class="st18" d="M710.8,388.4H570.1l28.2-102.3c2.4-8.7,10.3-14.7,19.3-14.7h102.7c9.6,0,17.3,7.8,17.3,17.3
	c0,1.5-0.2,3.1-0.6,4.6L710.8,388.4z"/>
<path class="st0" d="M710.5,388.4H601.1c-8.4,0-15.1-6.8-15.1-15.1c0-1.4,0.2-2.7,0.5-4l22.9-83.2c2.4-8.7,10.3-14.7,19.3-14.7
	h102.7c9.6,0,17.3,7.7,17.3,17.3c0,1.6-0.2,3.1-0.6,4.6l-23.1,84C723.2,383.9,717.3,388.4,710.5,388.4z"/>
<path class="st5" d="M389.2,381.5L389.2,381.5c-9.9-2.6-15.8-12.6-13.3-22.5l24.6-95.1c2.6-9.9,12.6-15.8,22.5-13.3l0,0
	c9.9,2.6,15.8,12.6,13.3,22.5l-24.6,95.1C409.2,378.1,399.1,384,389.2,381.5z"/>
<path class="st5" d="M509.4,347.8L509.4,347.8c1.4,10.1-5.6,19.5-15.7,20.9l-97.3,13.7c-10.1,1.4-19.5-5.6-20.9-15.7l0,0
	c-1.4-10.1,5.6-19.5,15.7-20.9l97.3-13.7C498.7,330.7,508,337.7,509.4,347.8z"/>
<circle class="st5" cx="495.3" cy="358.5" r="27.1"/>
<path class="st6" d="M389.2,270.5l-12.7,49l53.7,13.9l12.7-49c3.8-14.8-5.1-30-19.9-33.8C408.1,246.7,393,255.7,389.2,270.5
	L389.2,270.5L389.2,270.5z"/>
<rect x="398.6" y="309.8" transform="matrix(0.2496 -0.9684 0.9684 0.2496 -16.6542 635.1414)" class="st7" width="5.7" height="37"/>
<path class="st18" d="M684.9,331.6c-1.8,5.8-7.8,10.2-13.5,10.2s-9.5-4.4-8.5-10.2c1.1-6.3,7.3-11.7,13.8-11.7
	S686.9,325.3,684.9,331.6z"/>
<path class="st18" d="M685,317.1c-1.8,1.3-4.1,1.7-6.2,1c0.6-2.5,2.2-4.7,4.3-6.1c2.3-1.6,4.8-1.9,6.6-1.1
	C688.9,313.4,687.3,315.6,685,317.1z"/>
<rect x="64.6" y="364.9" class="st1" width="212.2" height="261.6"/>
<rect x="264.7" y="450.1" class="st2" width="81.3" height="174.4"/>
<path class="st3" d="M276.8,364.9L276.8,364.9c33.1,0,59.9,26.8,59.9,59.9v201.7l0,0H216.9l0,0V424.8
	C216.9,391.7,243.7,364.9,276.8,364.9z"/>
<circle class="st2" cx="276.8" cy="427.9" r="37.3"/>
</svg>
